<?xml version="1.0" standalone="no"?>
<!DOCTYPE svg PUBLIC "-//W3C//DTD SVG 20010904//EN"
 "http://www.w3.org/TR/2001/REC-SVG-20010904/DTD/svg10.dtd">
<svg version="1.0" xmlns="http://www.w3.org/2000/svg"
 width="200.000000pt" height="202.000000pt" viewBox="0 0 200.000000 202.000000"
 preserveAspectRatio="xMidYMid meet">

<g transform="translate(0.000000,202.000000) scale(0.100000,-0.100000)"
fill="#000000" stroke="none">
<path d="M518 1104 c-99 -53 -59 -214 52 -214 20 0 46 7 58 16 26 18 52 65 52
94 0 18 -6 20 -55 20 -48 0 -55 -2 -55 -20 0 -15 7 -20 26 -20 28 0 29 -17 1
-34 -25 -16 -70 4 -81 36 -21 61 39 108 95 75 25 -14 29 -14 41 0 10 13 8 19
-15 39 -32 28 -78 31 -119 8z"/>
<path d="M800 1005 l0 -115 25 0 25 0 0 115 0 115 -25 0 -25 0 0 -115z"/>
<path d="M1059 1093 c-6 -16 -17 -44 -24 -63 -7 -19 -22 -59 -34 -87 l-21 -53
24 0 c15 0 27 9 34 25 10 21 19 25 52 25 33 0 42 -4 52 -25 7 -16 19 -25 34
-25 l24 0 -19 48 c-69 174 -73 182 -92 182 -12 0 -24 -11 -30 -27z m51 -100
c0 -7 -9 -13 -20 -13 -22 0 -23 3 -13 39 6 23 7 23 20 6 7 -11 13 -25 13 -32z"/>
<path d="M1320 1005 l0 -115 25 0 c23 0 25 4 25 40 l0 40 40 0 c36 0 40 3 40
25 0 23 -4 25 -40 25 -36 0 -40 3 -40 25 0 23 4 25 40 25 36 0 40 3 40 25 0
24 -2 25 -65 25 l-65 0 0 -115z"/>
</g>
</svg>
